<svg width="501" height="445" viewBox="0 0 501 445" fill="none" xmlns="http://www.w3.org/2000/svg">
<path fill-rule="evenodd" clip-rule="evenodd" d="M56.0995 183.755C70.3504 136.524 117.917 111.354 161.232 87.6707C199.566 66.7105 240.972 51.819 284.071 59.1047C328.453 66.6072 366.607 91.9996 394.704 127.138C425.791 166.015 455.475 212.554 445.786 261.346C436.094 310.152 391.096 342.226 347.292 365.901C307.957 387.161 263.803 389.457 219.444 383.681C170.755 377.341 118.54 370.077 87.489 332.072C54.2342 291.37 40.9268 234.04 56.0995 183.755Z" fill="#F7F3F4"/>
<path opacity="0.2" fill-rule="evenodd" clip-rule="evenodd" d="M37.0924 180.004C52.7354 128.159 104.948 100.531 152.494 74.5344C194.573 51.5267 240.023 35.1807 287.333 43.178C336.05 51.4134 377.931 79.2862 408.773 117.857C442.896 160.532 475.479 211.617 464.844 265.175C454.206 318.748 404.812 353.955 356.73 379.943C313.552 403.28 265.085 405.8 216.392 399.46C162.948 392.501 105.632 384.527 71.5482 342.809C35.045 298.131 20.4377 235.202 37.0924 180.004Z" fill="#F7F3F4"/>
</svg>
